<mxfile host="app.diagrams.net" agent="Mozilla/5.0 (Windows NT 10.0; Win64; x64; rv:135.0) Gecko/20100101 Firefox/135.0" version="26.0.14">
  <diagram name="Page-1" id="3dLHTJiopZWAylu0FBBb">
    <mxGraphModel grid="1" page="1" gridSize="10" guides="1" tooltips="1" connect="1" arrows="1" fold="1" pageScale="1" pageWidth="850" pageHeight="1100" math="0" shadow="0">
      <root>
        <mxCell id="0" />
        <mxCell id="1" parent="0" />
        <mxCell id="1liZs369yaoYUMZYzrlq-2" value="START" style="rounded=0;whiteSpace=wrap;html=1;" vertex="1" parent="1">
          <mxGeometry x="390" y="250" width="60" height="30" as="geometry" />
        </mxCell>
        <mxCell id="1liZs369yaoYUMZYzrlq-3" value="&lt;div&gt;STATE 0:&lt;/div&gt;INIT_PARAMS" style="ellipse;whiteSpace=wrap;html=1;" vertex="1" parent="1">
          <mxGeometry x="360" y="330" width="120" height="80" as="geometry" />
        </mxCell>
        <mxCell id="1liZs369yaoYUMZYzrlq-5" value="STATE 2:&lt;br&gt;RUN AND COLLECT DATA" style="ellipse;whiteSpace=wrap;html=1;" vertex="1" parent="1">
          <mxGeometry x="360" y="590" width="120" height="80" as="geometry" />
        </mxCell>
        <mxCell id="1liZs369yaoYUMZYzrlq-8" value="" style="curved=1;endArrow=classic;html=1;rounded=0;entryX=0.5;entryY=0;entryDx=0;entryDy=0;exitX=0.5;exitY=1;exitDx=0;exitDy=0;" edge="1" parent="1" source="1liZs369yaoYUMZYzrlq-2" target="1liZs369yaoYUMZYzrlq-3">
          <mxGeometry width="50" height="50" relative="1" as="geometry">
            <mxPoint x="350" y="350" as="sourcePoint" />
            <mxPoint x="420" y="330" as="targetPoint" />
            <Array as="points">
              <mxPoint x="400" y="300" />
            </Array>
          </mxGeometry>
        </mxCell>
        <mxCell id="1liZs369yaoYUMZYzrlq-10" value="ALWAYS" style="text;html=1;align=center;verticalAlign=middle;resizable=0;points=[];autosize=1;strokeColor=none;fillColor=none;" vertex="1" parent="1">
          <mxGeometry x="401" y="287" width="70" height="30" as="geometry" />
        </mxCell>
        <mxCell id="1liZs369yaoYUMZYzrlq-18" value="&lt;div&gt;STATE 3:&lt;/div&gt;&lt;div&gt;PRINT RESULTS&lt;br&gt;&lt;/div&gt;" style="ellipse;whiteSpace=wrap;html=1;" vertex="1" parent="1">
          <mxGeometry x="360" y="720" width="120" height="80" as="geometry" />
        </mxCell>
        <mxCell id="1liZs369yaoYUMZYzrlq-19" value="" style="curved=1;endArrow=classic;html=1;rounded=0;entryX=0.5;entryY=0;entryDx=0;entryDy=0;exitX=0.5;exitY=1;exitDx=0;exitDy=0;" edge="1" parent="1" source="1liZs369yaoYUMZYzrlq-5" target="1liZs369yaoYUMZYzrlq-18">
          <mxGeometry width="50" height="50" relative="1" as="geometry">
            <mxPoint x="420" y="670" as="sourcePoint" />
            <mxPoint x="410" y="705" as="targetPoint" />
            <Array as="points">
              <mxPoint x="400" y="690" />
            </Array>
          </mxGeometry>
        </mxCell>
        <mxCell id="1liZs369yaoYUMZYzrlq-20" value="&lt;div&gt;SHARE_LEFT_RUN_DUR == 0&lt;/div&gt;&lt;div&gt;SHARE_RIGHT_RUN_DUR == 0&lt;/div&gt;&lt;div&gt;SHARE_LEFT_EFFORT == 0&lt;/div&gt;&lt;div&gt;SHARE_RIGHT_EFFORT == 0&lt;/div&gt;&lt;div&gt;QUEUE_LEFT_POSITION is EMPTY&lt;/div&gt;&lt;div&gt;QUEUE_RIGHT_POSITION is EMPTY&lt;/div&gt;&lt;div&gt;QUEUE_LEFT_VELOCITY is EMPTY&lt;/div&gt;&lt;div&gt;QUEUE_RIGHT_VELOCITY is EMPTY&lt;/div&gt;" style="text;html=1;align=center;verticalAlign=middle;resizable=0;points=[];autosize=1;strokeColor=none;fillColor=none;" vertex="1" parent="1">
          <mxGeometry x="471" y="630" width="230" height="130" as="geometry" />
        </mxCell>
        <mxCell id="1liZs369yaoYUMZYzrlq-21" value="ALWAYS" style="text;html=1;align=center;verticalAlign=middle;resizable=0;points=[];autosize=1;strokeColor=none;fillColor=none;" vertex="1" parent="1">
          <mxGeometry x="348" y="419" width="70" height="30" as="geometry" />
        </mxCell>
        <mxCell id="1liZs369yaoYUMZYzrlq-22" value="&lt;div&gt;SHARE_LEFT_EFFORT = EFFORT&lt;br&gt;&lt;/div&gt;&lt;div&gt;SHARE_LEFT_RUN_DUR = RUN_DUR&lt;br&gt;&lt;/div&gt;&lt;div&gt;&lt;div&gt;SHARE_RIGHT_EFFORT = EFFORT&lt;br&gt;&lt;/div&gt;&lt;div&gt;SHARE_RIGHT_RUN_DUR = RUN_DUR&lt;/div&gt;&lt;br&gt;&lt;/div&gt;" style="text;html=1;align=center;verticalAlign=middle;resizable=0;points=[];autosize=1;strokeColor=none;fillColor=none;" vertex="1" parent="1">
          <mxGeometry x="136" y="513" width="250" height="90" as="geometry" />
        </mxCell>
        <mxCell id="1liZs369yaoYUMZYzrlq-23" value="" style="endArrow=none;html=1;rounded=0;" edge="1" parent="1">
          <mxGeometry width="50" height="50" relative="1" as="geometry">
            <mxPoint x="153" y="526" as="sourcePoint" />
            <mxPoint x="143" y="576" as="targetPoint" />
          </mxGeometry>
        </mxCell>
        <mxCell id="1liZs369yaoYUMZYzrlq-24" value="&lt;div&gt;STATE 1:&lt;/div&gt;&lt;div&gt;INIT DATA STORAGE&lt;br&gt;&lt;/div&gt;" style="ellipse;whiteSpace=wrap;html=1;" vertex="1" parent="1">
          <mxGeometry x="360" y="460" width="120" height="80" as="geometry" />
        </mxCell>
        <mxCell id="1liZs369yaoYUMZYzrlq-26" value="" style="curved=1;endArrow=classic;html=1;rounded=0;entryX=0.5;entryY=0;entryDx=0;entryDy=0;exitX=0.5;exitY=1;exitDx=0;exitDy=0;" edge="1" parent="1" source="1liZs369yaoYUMZYzrlq-3" target="1liZs369yaoYUMZYzrlq-24">
          <mxGeometry width="50" height="50" relative="1" as="geometry">
            <mxPoint x="240" y="519" as="sourcePoint" />
            <mxPoint x="290" y="469" as="targetPoint" />
            <Array as="points">
              <mxPoint x="400" y="430" />
            </Array>
          </mxGeometry>
        </mxCell>
        <mxCell id="1liZs369yaoYUMZYzrlq-28" value="" style="curved=1;endArrow=classic;html=1;rounded=0;entryX=0.5;entryY=0;entryDx=0;entryDy=0;exitX=0.506;exitY=1.064;exitDx=0;exitDy=0;exitPerimeter=0;" edge="1" parent="1" source="1liZs369yaoYUMZYzrlq-24" target="1liZs369yaoYUMZYzrlq-5">
          <mxGeometry width="50" height="50" relative="1" as="geometry">
            <mxPoint x="421" y="538" as="sourcePoint" />
            <mxPoint x="421" y="588" as="targetPoint" />
            <Array as="points">
              <mxPoint x="400" y="560" />
            </Array>
          </mxGeometry>
        </mxCell>
        <mxCell id="1liZs369yaoYUMZYzrlq-30" value="" style="curved=1;endArrow=classic;html=1;rounded=0;entryX=0.233;entryY=0.071;entryDx=0;entryDy=0;entryPerimeter=0;exitX=0.249;exitY=0.958;exitDx=0;exitDy=0;exitPerimeter=0;" edge="1" parent="1" source="1liZs369yaoYUMZYzrlq-5" target="1liZs369yaoYUMZYzrlq-5">
          <mxGeometry width="50" height="50" relative="1" as="geometry">
            <mxPoint x="240" y="680" as="sourcePoint" />
            <mxPoint x="290" y="630" as="targetPoint" />
            <Array as="points">
              <mxPoint x="340" y="690" />
              <mxPoint x="310" y="630" />
              <mxPoint x="340" y="580" />
            </Array>
          </mxGeometry>
        </mxCell>
        <mxCell id="1liZs369yaoYUMZYzrlq-31" value="ELSE" style="text;html=1;align=center;verticalAlign=middle;resizable=0;points=[];autosize=1;strokeColor=none;fillColor=none;" vertex="1" parent="1">
          <mxGeometry x="213" y="615" width="50" height="30" as="geometry" />
        </mxCell>
        <mxCell id="1liZs369yaoYUMZYzrlq-32" value="IDX += 1" style="text;html=1;align=center;verticalAlign=middle;resizable=0;points=[];autosize=1;strokeColor=none;fillColor=none;" vertex="1" parent="1">
          <mxGeometry x="256" y="615" width="70" height="30" as="geometry" />
        </mxCell>
        <mxCell id="1liZs369yaoYUMZYzrlq-33" value="" style="endArrow=none;html=1;rounded=0;" edge="1" parent="1">
          <mxGeometry width="50" height="50" relative="1" as="geometry">
            <mxPoint x="257" y="642.5" as="sourcePoint" />
            <mxPoint x="267" y="617.5" as="targetPoint" />
          </mxGeometry>
        </mxCell>
        <mxCell id="1liZs369yaoYUMZYzrlq-35" value="&lt;div&gt;STATE 4:&lt;/div&gt;&lt;div&gt;HOLD&lt;br&gt;&lt;/div&gt;" style="ellipse;whiteSpace=wrap;html=1;" vertex="1" parent="1">
          <mxGeometry x="360" y="850" width="120" height="80" as="geometry" />
        </mxCell>
        <mxCell id="1liZs369yaoYUMZYzrlq-36" value="" style="curved=1;endArrow=classic;html=1;rounded=0;entryX=0.5;entryY=0;entryDx=0;entryDy=0;exitX=0.5;exitY=1;exitDx=0;exitDy=0;" edge="1" parent="1" source="1liZs369yaoYUMZYzrlq-18" target="1liZs369yaoYUMZYzrlq-35">
          <mxGeometry width="50" height="50" relative="1" as="geometry">
            <mxPoint x="420" y="800" as="sourcePoint" />
            <mxPoint x="410" y="835" as="targetPoint" />
            <Array as="points">
              <mxPoint x="400" y="820" />
            </Array>
          </mxGeometry>
        </mxCell>
        <mxCell id="1liZs369yaoYUMZYzrlq-37" value="ALWAYS" style="text;html=1;align=center;verticalAlign=middle;resizable=0;points=[];autosize=1;strokeColor=none;fillColor=none;" vertex="1" parent="1">
          <mxGeometry x="348" y="810" width="70" height="30" as="geometry" />
        </mxCell>
        <mxCell id="1liZs369yaoYUMZYzrlq-38" value="" style="endArrow=none;html=1;rounded=0;entryX=0.083;entryY=0.462;entryDx=0;entryDy=0;entryPerimeter=0;" edge="1" parent="1">
          <mxGeometry width="50" height="50" relative="1" as="geometry">
            <mxPoint x="410" y="694" as="sourcePoint" />
            <mxPoint x="489.09000000000003" y="694.06" as="targetPoint" />
          </mxGeometry>
        </mxCell>
        <mxCell id="3ApjTyw4Nx7nmzDdAiLv-1" value="" style="endArrow=none;html=1;rounded=0;exitX=0.936;exitY=0.522;exitDx=0;exitDy=0;exitPerimeter=0;" edge="1" parent="1" source="1liZs369yaoYUMZYzrlq-22">
          <mxGeometry width="50" height="50" relative="1" as="geometry">
            <mxPoint x="240" y="590" as="sourcePoint" />
            <mxPoint x="400" y="560" as="targetPoint" />
          </mxGeometry>
        </mxCell>
      </root>
    </mxGraphModel>
  </diagram>
</mxfile>
